# xmcd
#
# Track frame offsets: 
#        182
#        9512
#        38530
#        56437
#        78737
#        96032
#        114905
#        132812
#        146777
#        153367
#        172097
#
# Disc length: 2614 seconds
#
# Revision: 8
# Processed by: cddbd v1.5.2PL0 Copyright (c) Steve Scherf et al.
# Submitted via: ExactAudioCopy v1.0b1
#
DISCID=860a340b
DTITLE=Enigma - The Screen Behind The Mirror
DYEAR=2000
DGENRE=Electronic
TTITLE0=The Gate
TTITLE1=Push The Limits
TTITLE2=Gravity Of Love
TTITLE3=Smell Of Desire
TTITLE4=Modern Crusaders
TTITLE5=Traces (Light And Weight)
TTITLE6=The Screen Behind The Mirror
TTITLE7=Endless Quest
TTITLE8=Camera Obscura
TTITLE9=Between Mind And Heart
TTITLE10=Silence Must Be Heard
EXTD=YEAR: 2000
EXTT0=
EXTT1=
EXTT2=
EXTT3=
EXTT4=
EXTT5=
EXTT6=
EXTT7=
EXTT8=
EXTT9=
EXTT10=
PLAYORDER=
